<svg xmlns="http://www.w3.org/2000/svg" viewBox="0 0 1024 1024" width="1024" height="1024">
<defs><radialGradient id="g" cx="30%" cy="20%" r="95%"><stop offset="0" stop-color="#1E2442"/><stop offset=".6" stop-color="#0B0F1A"/></radialGradient></defs>
<rect width="1024" height="1024" rx="228" fill="url(#g)"/>
<g fill="#F2F4F8" opacity=".7"><circle cx="190" cy="210" r="5"/><circle cx="820" cy="170" r="4"/><circle cx="870" cy="760" r="6"/><circle cx="150" cy="820" r="3"/><circle cx="700" cy="880" r="3"/></g>
<g transform="translate(112 100) scale(3.33)"><defs><mask id="h-k" maskUnits="userSpaceOnUse" x="0" y="0" width="240" height="240">
<rect width="240" height="240" fill="#fff"/>
<rect x="72" y="86" width="100" height="54" rx="27" fill="#000"/>
<g transform="translate(120 152) rotate(-12)"><path d="M104 0 A104 34 0 0 1 -104 0" fill="none" stroke="#000" stroke-width="26"/></g>
</mask></defs>
<g transform="translate(120 152) rotate(-12)"><path d="M-104 0 A104 34 0 0 1 104 0" fill="none" stroke="#FF5A1F" stroke-width="10" stroke-linecap="round"/></g>
<g mask="url(#h-k)" fill="#F2F4F8"><circle cx="120" cy="130" r="68"/><path d="M62 100 L70 46 L110 64 Z M178 100 L170 46 L130 64 Z"/></g>
<path d="M88 124 Q90 104 110 101" fill="none" stroke="#F2F4F8" stroke-width="7" stroke-linecap="round"/><path d="M87 133 L87.5 132.5" fill="none" stroke="#F2F4F8" stroke-width="7" stroke-linecap="round"/>
<g transform="translate(120 152) rotate(-12)"><path d="M104 0 A104 34 0 0 1 -104 0" fill="none" stroke="#FF5A1F" stroke-width="10" stroke-linecap="round"/>
<circle cx="97.7" cy="-11.6" r="11" fill="#3FB950"/></g></g></svg>
